<?xml version="1.0" encoding="UTF-8"?>
<svg width="24px" height="24px" viewBox="0 0 24 24" version="1.1" xmlns="http://www.w3.org/2000/svg" xmlns:xlink="http://www.w3.org/1999/xlink">
    <!-- Generator: Sketch 44.1 (41455) - http://www.bohemiancoding.com/sketch -->
    <title>Group</title>
    <desc>Created with Sketch.</desc>
    <defs></defs>
    <g id="Page-1" stroke="none" stroke-width="1" fill="none" fill-rule="evenodd">
        <g id="Group">
            <path d="M12,0 C18.6250003,0 24,5.37499967 24,12 C24,17.2968751 20.5625,21.7968749 15.7968749,23.3906255 C15.1875004,23.4999999 14.9687506,23.1250001 14.9687506,22.8124999 C14.9687506,22.4218752 14.9843756,21.1249998 14.9843756,19.5156251 C14.9843756,18.3906247 14.6093748,17.6718749 14.1718753,17.2968751 C16.8437507,16.9999998 19.6562503,15.9843748 19.6562503,11.3749997 C19.6562503,10.0625003 19.1875001,9.00000047 18.4218755,8.15625039 C18.5468748,7.84375023 18.9531254,6.62500033 18.2968753,4.96875001 C17.2968751,4.65624985 15.0000005,6.20312483 15.0000005,6.20312483 C14.0468751,5.93750034 13.0156251,5.79687517 12,5.79687517 C10.9843749,5.79687517 9.95312494,5.93750034 9.00000047,6.20312483 C9.00000047,6.20312483 6.70312491,4.65624985 5.70312475,4.96875001 C5.04687552,6.62500033 5.45312518,7.84375023 5.57812543,8.15625039 C4.81249993,9.00000047 4.34374968,10.0625003 4.34374968,11.3749997 C4.34374968,15.9687499 7.14062532,16.9999998 9.81249978,17.2968751 C9.46874978,17.6093753 9.15625055,18.1406252 9.04687521,18.9062497 C8.35937522,19.2187499 6.60937542,19.7499998 5.56250052,17.9062505 C4.90625035,16.7656252 3.71875029,16.6718748 3.71875029,16.6718748 C2.54687513,16.6562498 3.64062478,17.4062504 3.64062478,17.4062504 C4.42187519,17.7656253 4.96875001,19.1562502 4.96875001,19.1562502 C5.67187492,21.2968748 9.01562538,20.578125 9.01562538,20.578125 C9.01562538,21.5781251 9.0312503,22.5156256 9.0312503,22.8124999 C9.0312503,23.1250001 8.81250055,23.4999999 8.20312514,23.3906255 C3.43749995,21.7968749 0,17.2968751 0,12 C0,5.37499967 5.37499967,0 12,0 Z M4.54687544,17.2343754 C4.51562468,17.2968751 4.42187519,17.3125 4.34374968,17.2656253 C4.25000019,17.2187505 4.20312545,17.140625 4.23437528,17.0781254 C4.26562511,17.0312497 4.34374968,17.0156248 4.43750011,17.0468755 C4.53125053,17.0937503 4.57812527,17.1718748 4.54687544,17.2343754 Z M5.03124967,17.7656253 C4.96875001,17.828125 4.85937468,17.7968752 4.7812501,17.7187506 C4.70312553,17.6250002 4.68749968,17.5156248 4.75000027,17.4687501 C4.81249993,17.4062504 4.92187527,17.4375003 4.99999984,17.5156248 C5.07812535,17.6093753 5.09375027,17.7187506 5.03124967,17.7656253 Z M5.49999992,18.4687502 C5.43750026,18.515625 5.31250001,18.4687502 5.23437544,18.3593749 C5.15624993,18.2500005 5.15624993,18.1250003 5.23437544,18.0781255 C5.31250001,18.0156249 5.43750026,18.0625006 5.49999992,18.171875 C5.57812543,18.2812503 5.57812543,18.4062506 5.49999992,18.4687502 Z M6.15625008,19.1250004 C6.09375042,19.203125 5.95312526,19.1875001 5.84374992,19.0781247 C5.73437551,18.9843752 5.70312475,18.8437501 5.78125026,18.7812504 C5.84374992,18.7031249 5.98437509,18.7187498 6.09375042,18.8281252 C6.18749991,18.9218756 6.21874974,19.0624998 6.15625008,19.1250004 Z M7.0468749,19.5156251 C7.01562507,19.6093756 6.8749999,19.6562503 6.74999965,19.6093756 C6.60937542,19.5781248 6.51562499,19.4687504 6.54687482,19.375 C6.57812465,19.2812505 6.71874982,19.2343748 6.84375007,19.2656256 C6.98437524,19.3125003 7.07812473,19.4218747 7.0468749,19.5156251 Z M8.03125014,19.5937497 C8.03125014,19.6875001 7.9218748,19.7656247 7.78125057,19.7656247 C7.62500049,19.7812506 7.51562515,19.7031251 7.51562515,19.5937497 C7.51562515,19.5000002 7.62500049,19.4218747 7.76562472,19.4218747 C7.90624989,19.4062498 8.03125014,19.4843753 8.03125014,19.5937497 Z M8.93749987,19.4375006 C8.95312479,19.5312501 8.8593753,19.6250005 8.71875013,19.6562503 C8.57812496,19.6875001 8.45312471,19.6250005 8.4374998,19.5312501 C8.42187488,19.4218747 8.5156253,19.3281252 8.65625047,19.2968754 C8.79687471,19.2812505 8.92187496,19.3437502 8.93749987,19.4375006 Z" id="Shape" fill="#9B9B9B" fill-rule="nonzero"></path>
            <rect id="Rectangle" x="0" y="0" width="24" height="24"></rect>
        </g>
    </g>
</svg>